<?xml version="1.0" encoding="UTF-8"?>
<svg width="16px" height="16px" viewBox="0 0 16 16" version="1.1" xmlns="http://www.w3.org/2000/svg" xmlns:xlink="http://www.w3.org/1999/xlink">
    <title>06F9E14C-CC14-456D-8D8D-5AE628335702</title>
    <defs>
        <polygon id="path-1" points="0 0 11.9086383 0 11.9086383 16 0 16"></polygon>
    </defs>
    <g id="Guidelines" stroke="none" stroke-width="1" fill="none" fill-rule="evenodd">
        <g id="04_Guidelines_Iconography" transform="translate(-647.000000, -1257.000000)">
            <g id="icon" transform="translate(590.000000, 1200.000000)">
                <g id="01-Atoms-/-01-Icons-/-03-Header-/-48-Pin" transform="translate(57.000000, 57.000000)">
                    <g id="Group-6" transform="translate(2.000000, 0.000000)">
                        <g id="Group-3">
                            <mask id="mask-2" fill="white">
                                <use xlink:href="#path-1"></use>
                            </mask>
                            <g id="Clip-2"></g>
                            <path d="M5.95430047,0.560102893 C2.97993263,0.560102893 0.560177588,2.97985794 0.560177588,5.95422577 C0.560177588,10.424741 5.00940461,14.4691193 5.95430047,15.2769493 C6.89882285,14.4683724 11.3484233,10.4202592 11.3484233,5.95422577 C11.3484233,2.97985794 8.9286683,0.560102893 5.95430047,0.560102893 L5.95430047,0.560102893 Z M5.95430047,16 L5.77988688,15.8610667 C5.54384966,15.6728345 -3.73476624e-05,11.1974641 -3.73476624e-05,5.95422577 C-3.73476624e-05,2.67099277 2.67106747,-0.000112042987 5.95430047,-0.000112042987 C9.23753347,-0.000112042987 11.9086383,2.67099277 11.9086383,5.95422577 C11.9086383,11.1974641 6.36475128,15.6728345 6.12871405,15.8610667 L5.95430047,16 Z" id="Fill-1" fill="#000000" mask="url(#mask-2)"></path>
                        </g>
                        <path d="M5.95430047,3.11117232 C4.41707068,3.11117232 3.16629747,4.36194553 3.16629747,5.89917532 C3.16629747,7.4364051 4.41707068,8.68717831 5.95430047,8.68717831 C7.49153025,8.68717831 8.74230346,7.4364051 8.74230346,5.89917532 C8.74230346,4.36194553 7.49153025,3.11117232 5.95430047,3.11117232 M5.95430047,9.24739325 C4.10820551,9.24739325 2.60608253,7.74527027 2.60608253,5.89917532 C2.60608253,4.05270689 4.10820551,2.55095738 5.95430047,2.55095738 C7.80039542,2.55095738 9.3025184,4.05270689 9.3025184,5.89917532 C9.3025184,7.74527027 7.80039542,9.24739325 5.95430047,9.24739325" id="Fill-4" fill="#000000"></path>
                    </g>
                </g>
            </g>
        </g>
    </g>
</svg>